<svg width="1200" height="360" viewBox="0 0 1200 360" fill="none" xmlns="http://www.w3.org/2000/svg" role="img" aria-labelledby="title desc">
  <title id="title">Gate Banner</title>
  <desc id="desc">Gate brand banner showing a secure tunnel between client and server nodes.</desc>
  <rect width="1200" height="360" rx="32" fill="#0B1020"/>
  <path d="M0 300C140 244 247 272 379 218C525 158 616 72 804 114C944 145 1019 232 1200 177" stroke="#1E293B" stroke-width="90" stroke-linecap="round"/>
  <path d="M140 228C276 164 386 212 519 164C661 113 739 66 900 104C1018 132 1086 183 1160 168" stroke="#38BDF8" stroke-width="6" stroke-linecap="round" stroke-dasharray="18 18"/>
  <rect x="92" y="96" width="176" height="176" rx="42" fill="#111827" stroke="#334155" stroke-width="2"/>
  <path d="M139 223V148C139 138.059 147.059 130 157 130H203C212.941 130 221 138.059 221 148V223" stroke="#38BDF8" stroke-width="12" stroke-linecap="round"/>
  <path d="M162 223V166C162 161.582 165.582 158 170 158H190C194.418 158 198 161.582 198 166V223" stroke="#A7F3D0" stroke-width="9" stroke-linecap="round"/>
  <path d="M152 223H208" stroke="#F8FAFC" stroke-width="9" stroke-linecap="round"/>
  <text x="324" y="150" fill="#F8FAFC" font-family="Inter, Segoe UI, Arial, sans-serif" font-size="72" font-weight="800">Gate</text>
  <text x="328" y="204" fill="#BAE6FD" font-family="Inter, Segoe UI, Arial, sans-serif" font-size="28" font-weight="600">Self-hosted tunnel runtime for teams</text>
  <text x="328" y="250" fill="#CBD5E1" font-family="Inter, Segoe UI, Arial, sans-serif" font-size="20">Rust · Tauri · Docker · GitHub-ready open source ecosystem</text>
  <circle cx="972" cy="154" r="62" fill="#111827" stroke="#334155" stroke-width="2"/>
  <circle cx="972" cy="154" r="28" fill="#38BDF8" opacity="0.18"/>
  <circle cx="972" cy="154" r="12" fill="#A7F3D0"/>
  <circle cx="1060" cy="210" r="34" fill="#111827" stroke="#334155" stroke-width="2"/>
  <circle cx="1060" cy="210" r="8" fill="#FACC15"/>
</svg>
