<svg width="1200" height="630" viewBox="0 0 1200 630" fill="none" xmlns="http://www.w3.org/2000/svg" role="img" aria-labelledby="title desc">
  <title id="title">Gate Social Card</title>
  <desc id="desc">Open graph card for Gate.</desc>
  <rect width="1200" height="630" fill="#0B1020"/>
  <path d="M-60 510C150 402 308 453 507 340C713 223 852 149 1260 230" stroke="#172554" stroke-width="150" stroke-linecap="round"/>
  <path d="M118 434C295 326 448 384 620 291C798 195 936 176 1086 222" stroke="#38BDF8" stroke-width="8" stroke-linecap="round" stroke-dasharray="24 24"/>
  <rect x="96" y="118" width="180" height="180" rx="42" fill="#111827" stroke="#334155" stroke-width="2"/>
  <path d="M143 245V170C143 160.059 151.059 152 161 152H211C220.941 152 229 160.059 229 170V245" stroke="#38BDF8" stroke-width="13" stroke-linecap="round"/>
  <path d="M166 245V188C166 183.582 169.582 180 174 180H198C202.418 180 206 183.582 206 188V245" stroke="#A7F3D0" stroke-width="10" stroke-linecap="round"/>
  <path d="M156 245H216" stroke="#F8FAFC" stroke-width="10" stroke-linecap="round"/>
  <text x="330" y="196" fill="#F8FAFC" font-family="Inter, Segoe UI, Arial, sans-serif" font-size="88" font-weight="850">Gate</text>
  <text x="334" y="262" fill="#BAE6FD" font-family="Inter, Segoe UI, Arial, sans-serif" font-size="34" font-weight="650">Enterprise-grade tunnel runtime</text>
  <text x="334" y="326" fill="#CBD5E1" font-family="Inter, Segoe UI, Arial, sans-serif" font-size="25">Self-hosted · Rust-first · GitHub-ready</text>
  <text x="96" y="520" fill="#94A3B8" font-family="Inter, Segoe UI, Arial, sans-serif" font-size="24">Documentation · CI · Community · Security · Release Automation</text>
</svg>
