<svg width="900" height="540" viewBox="0 0 900 540" fill="none" xmlns="http://www.w3.org/2000/svg" role="img" aria-labelledby="title desc">
  <title id="title">Gate dashboard screenshot</title>
  <desc id="desc">Dashboard cards for server state, tunnel count, traffic, and activity.</desc>
  <rect width="900" height="540" rx="24" fill="#0B1020"/>
  <rect x="28" y="28" width="844" height="484" rx="20" fill="#111827" stroke="#263244"/>
  <text x="64" y="82" fill="#F8FAFC" font-family="Inter, Segoe UI, Arial, sans-serif" font-size="28" font-weight="800">Dashboard</text>
  <rect x="642" y="55" width="166" height="36" rx="10" fill="#052E2B" stroke="#14B8A6" stroke-opacity="0.45"/>
  <circle cx="667" cy="73" r="6" fill="#2DD4BF"/>
  <text x="684" y="80" fill="#A7F3D0" font-family="Inter, Segoe UI, Arial, sans-serif" font-size="15" font-weight="700">connected</text>
  <rect x="64" y="126" width="178" height="104" rx="16" fill="#0F172A" stroke="#263244"/>
  <rect x="266" y="126" width="178" height="104" rx="16" fill="#0F172A" stroke="#263244"/>
  <rect x="468" y="126" width="178" height="104" rx="16" fill="#0F172A" stroke="#263244"/>
  <rect x="670" y="126" width="138" height="104" rx="16" fill="#0F172A" stroke="#263244"/>
  <text x="88" y="161" fill="#94A3B8" font-family="Inter, Segoe UI, Arial, sans-serif" font-size="14">Tunnels</text>
  <text x="88" y="206" fill="#F8FAFC" font-family="Inter, Segoe UI, Arial, sans-serif" font-size="44" font-weight="800">12</text>
  <text x="290" y="161" fill="#94A3B8" font-family="Inter, Segoe UI, Arial, sans-serif" font-size="14">Traffic</text>
  <text x="290" y="206" fill="#F8FAFC" font-family="Inter, Segoe UI, Arial, sans-serif" font-size="44" font-weight="800">8.4G</text>
  <text x="492" y="161" fill="#94A3B8" font-family="Inter, Segoe UI, Arial, sans-serif" font-size="14">Latency</text>
  <text x="492" y="206" fill="#F8FAFC" font-family="Inter, Segoe UI, Arial, sans-serif" font-size="44" font-weight="800">42</text>
  <text x="696" y="161" fill="#94A3B8" font-family="Inter, Segoe UI, Arial, sans-serif" font-size="14">Errors</text>
  <text x="696" y="206" fill="#F8FAFC" font-family="Inter, Segoe UI, Arial, sans-serif" font-size="44" font-weight="800">0</text>
  <rect x="64" y="262" width="480" height="192" rx="16" fill="#0F172A" stroke="#263244"/>
  <text x="88" y="300" fill="#E2E8F0" font-family="Inter, Segoe UI, Arial, sans-serif" font-size="18" font-weight="700">Traffic</text>
  <path d="M94 400C154 348 196 384 246 338C306 284 354 364 414 316C458 280 490 296 520 268" stroke="#38BDF8" stroke-width="7" stroke-linecap="round"/>
  <path d="M94 430C154 410 204 430 250 390C310 336 360 404 420 366C468 334 496 348 520 322" stroke="#A7F3D0" stroke-width="7" stroke-linecap="round"/>
  <rect x="576" y="262" width="232" height="192" rx="16" fill="#0F172A" stroke="#263244"/>
  <text x="600" y="300" fill="#E2E8F0" font-family="Inter, Segoe UI, Arial, sans-serif" font-size="18" font-weight="700">Activity</text>
  <circle cx="610" cy="342" r="6" fill="#22C55E"/>
  <rect x="628" y="335" width="120" height="10" rx="5" fill="#CBD5E1"/>
  <circle cx="610" cy="382" r="6" fill="#38BDF8"/>
  <rect x="628" y="375" width="144" height="10" rx="5" fill="#CBD5E1"/>
  <circle cx="610" cy="422" r="6" fill="#FACC15"/>
  <rect x="628" y="415" width="98" height="10" rx="5" fill="#CBD5E1"/>
</svg>
