<svg width="900" height="540" viewBox="0 0 900 540" fill="none" xmlns="http://www.w3.org/2000/svg" role="img" aria-labelledby="title desc">
  <title id="title">Gate log center screenshot</title>
  <desc id="desc">Log Center with event filters and runtime log rows.</desc>
  <rect width="900" height="540" rx="24" fill="#0B1020"/>
  <rect x="28" y="28" width="844" height="484" rx="20" fill="#111827" stroke="#263244"/>
  <text x="64" y="82" fill="#F8FAFC" font-family="Inter, Segoe UI, Arial, sans-serif" font-size="28" font-weight="800">Log Center</text>
  <rect x="64" y="116" width="744" height="46" rx="12" fill="#0F172A" stroke="#263244"/>
  <rect x="88" y="133" width="164" height="12" rx="6" fill="#64748B"/>
  <rect x="624" y="125" width="68" height="28" rx="8" fill="#1E293B"/>
  <rect x="708" y="125" width="68" height="28" rx="8" fill="#1E293B"/>
  <rect x="64" y="192" width="744" height="54" rx="14" fill="#0F172A" stroke="#263244"/>
  <text x="88" y="224" fill="#94A3B8" font-family="Inter, Segoe UI, Arial, sans-serif" font-size="14">12:04:18</text>
  <rect x="176" y="204" width="54" height="24" rx="7" fill="#052E2B"/>
  <text x="190" y="221" fill="#A7F3D0" font-family="Inter, Segoe UI, Arial, sans-serif" font-size="12" font-weight="800">INFO</text>
  <rect x="260" y="211" width="392" height="10" rx="5" fill="#CBD5E1"/>
  <rect x="64" y="260" width="744" height="54" rx="14" fill="#0F172A" stroke="#263244"/>
  <text x="88" y="292" fill="#94A3B8" font-family="Inter, Segoe UI, Arial, sans-serif" font-size="14">12:04:22</text>
  <rect x="176" y="272" width="54" height="24" rx="7" fill="#0B2A3A"/>
  <text x="188" y="289" fill="#BAE6FD" font-family="Inter, Segoe UI, Arial, sans-serif" font-size="12" font-weight="800">DEBUG</text>
  <rect x="260" y="279" width="456" height="10" rx="5" fill="#CBD5E1"/>
  <rect x="64" y="328" width="744" height="54" rx="14" fill="#0F172A" stroke="#263244"/>
  <text x="88" y="360" fill="#94A3B8" font-family="Inter, Segoe UI, Arial, sans-serif" font-size="14">12:04:31</text>
  <rect x="176" y="340" width="54" height="24" rx="7" fill="#3B2F08"/>
  <text x="188" y="357" fill="#FEF3C7" font-family="Inter, Segoe UI, Arial, sans-serif" font-size="12" font-weight="800">WARN</text>
  <rect x="260" y="347" width="338" height="10" rx="5" fill="#CBD5E1"/>
  <rect x="64" y="396" width="744" height="54" rx="14" fill="#0F172A" stroke="#263244"/>
  <text x="88" y="428" fill="#94A3B8" font-family="Inter, Segoe UI, Arial, sans-serif" font-size="14">12:05:02</text>
  <rect x="176" y="408" width="54" height="24" rx="7" fill="#3B1115"/>
  <text x="187" y="425" fill="#FCA5A5" font-family="Inter, Segoe UI, Arial, sans-serif" font-size="12" font-weight="800">ERROR</text>
  <rect x="260" y="415" width="426" height="10" rx="5" fill="#CBD5E1"/>
</svg>
