<svg width="1440" height="900" viewBox="0 0 1440 900" fill="none" xmlns="http://www.w3.org/2000/svg" role="img" aria-labelledby="title desc">
  <title id="title">Gate project screenshot</title>
  <desc id="desc">Project workspace preview with project cards.</desc>
  <rect width="1440" height="900" fill="#EEF3F8"/>
  <filter id="shadow" x="80" y="54" width="1280" height="792" filterUnits="userSpaceOnUse"><feDropShadow dx="0" dy="24" stdDeviation="34" flood-color="#102033" flood-opacity=".18"/></filter>
  <g filter="url(#shadow)">
    <rect x="110" y="78" width="1220" height="744" rx="28" fill="#F8FAFC"/>
    <rect x="110" y="78" width="1220" height="64" rx="28" fill="#0B1020"/>
    <circle cx="151" cy="111" r="7" fill="#EF4444"/><circle cx="176" cy="111" r="7" fill="#F59E0B"/><circle cx="201" cy="111" r="7" fill="#10B981"/>
    <text x="246" y="118" fill="#E2E8F0" font-family="Inter, Segoe UI, Arial, sans-serif" font-size="18" font-weight="700">Gate Projects</text>
    <rect x="110" y="142" width="220" height="680" fill="#111827"/>
    <text x="166" y="225" fill="#CBD5E1" font-family="Inter, Segoe UI, Arial, sans-serif" font-size="15">Dashboard</text><rect x="138" y="264" width="164" height="42" rx="12" fill="#0EA5E9"/><text x="166" y="291" fill="#fff" font-family="Inter, Segoe UI, Arial, sans-serif" font-size="15" font-weight="700">Projects</text><text x="166" y="358" fill="#CBD5E1" font-family="Inter, Segoe UI, Arial, sans-serif" font-size="15">Tunnels</text><text x="166" y="410" fill="#CBD5E1" font-family="Inter, Segoe UI, Arial, sans-serif" font-size="15">Servers</text>
    <text x="374" y="218" fill="#0F172A" font-family="Inter, Segoe UI, Arial, sans-serif" font-size="30" font-weight="850">Projects</text><text x="374" y="250" fill="#64748B" font-family="Inter, Segoe UI, Arial, sans-serif" font-size="15">Group tunnels by product, team, or environment.</text>
    <rect x="374" y="304" width="282" height="190" rx="18" fill="#FFFFFF" stroke="#E2E8F0"/><rect x="402" y="332" width="48" height="48" rx="14" fill="#DBEAFE"/><text x="402" y="416" fill="#0F172A" font-family="Inter, Segoe UI, Arial, sans-serif" font-size="22" font-weight="850">Payments Dev</text><text x="402" y="450" fill="#64748B" font-family="Inter, Segoe UI, Arial, sans-serif" font-size="14">4 tunnels · staging callbacks</text>
    <rect x="684" y="304" width="282" height="190" rx="18" fill="#FFFFFF" stroke="#E2E8F0"/><rect x="712" y="332" width="48" height="48" rx="14" fill="#DCFCE7"/><text x="712" y="416" fill="#0F172A" font-family="Inter, Segoe UI, Arial, sans-serif" font-size="22" font-weight="850">Remote Dev</text><text x="712" y="450" fill="#64748B" font-family="Inter, Segoe UI, Arial, sans-serif" font-size="14">3 tunnels · SSH and tools</text>
    <rect x="994" y="304" width="282" height="190" rx="18" fill="#FFFFFF" stroke="#E2E8F0"/><rect x="1022" y="332" width="48" height="48" rx="14" fill="#FEF3C7"/><text x="1022" y="416" fill="#0F172A" font-family="Inter, Segoe UI, Arial, sans-serif" font-size="22" font-weight="850">Webhook QA</text><text x="1022" y="450" fill="#64748B" font-family="Inter, Segoe UI, Arial, sans-serif" font-size="14">6 tunnels · public callbacks</text>
    <rect x="374" y="538" width="902" height="190" rx="18" fill="#FFFFFF" stroke="#E2E8F0"/><text x="410" y="588" fill="#0F172A" font-family="Inter, Segoe UI, Arial, sans-serif" font-size="20" font-weight="850">Selected Project: Payments Dev</text><text x="410" y="628" fill="#64748B" font-family="Inter, Segoe UI, Arial, sans-serif" font-size="15">wechat-pay-callback · alipay-callback · local-web · mysql-dev</text><rect x="410" y="668" width="160" height="36" rx="10" fill="#E0F2FE"/><text x="438" y="691" fill="#0369A1" font-family="Inter, Segoe UI, Arial, sans-serif" font-size="13" font-weight="800">development</text><rect x="590" y="668" width="130" height="36" rx="10" fill="#DCFCE7"/><text x="622" y="691" fill="#047857" font-family="Inter, Segoe UI, Arial, sans-serif" font-size="13" font-weight="800">payments</text>
  </g>
</svg>
