<svg width="900" height="540" viewBox="0 0 900 540" fill="none" xmlns="http://www.w3.org/2000/svg" role="img" aria-labelledby="title desc">
  <title id="title">Gate tunnel workspace screenshot</title>
  <desc id="desc">Tunnel workspace showing filters, tunnel cards, and route health.</desc>
  <rect width="900" height="540" rx="24" fill="#0B1020"/>
  <rect x="28" y="28" width="844" height="484" rx="20" fill="#111827" stroke="#263244"/>
  <text x="64" y="82" fill="#F8FAFC" font-family="Inter, Segoe UI, Arial, sans-serif" font-size="28" font-weight="800">Tunnels</text>
  <rect x="650" y="54" width="158" height="38" rx="10" fill="#0284C7"/>
  <text x="688" y="79" fill="#F8FAFC" font-family="Inter, Segoe UI, Arial, sans-serif" font-size="15" font-weight="800">New Tunnel</text>
  <rect x="64" y="122" width="190" height="332" rx="16" fill="#0F172A" stroke="#263244"/>
  <rect x="88" y="152" width="104" height="12" rx="6" fill="#CBD5E1"/>
  <rect x="88" y="198" width="132" height="36" rx="10" fill="#1E293B"/>
  <rect x="88" y="250" width="108" height="12" rx="6" fill="#64748B"/>
  <rect x="88" y="286" width="126" height="12" rx="6" fill="#64748B"/>
  <rect x="88" y="322" width="96" height="12" rx="6" fill="#64748B"/>
  <rect x="286" y="122" width="522" height="92" rx="16" fill="#0F172A" stroke="#263244"/>
  <circle cx="326" cy="168" r="14" fill="#22C55E"/>
  <text x="358" y="160" fill="#F8FAFC" font-family="Inter, Segoe UI, Arial, sans-serif" font-size="18" font-weight="800">local-web</text>
  <text x="358" y="187" fill="#94A3B8" font-family="Inter, Segoe UI, Arial, sans-serif" font-size="14">127.0.0.1:3000 to server:18080</text>
  <rect x="656" y="150" width="96" height="36" rx="10" fill="#052E2B" stroke="#14B8A6" stroke-opacity="0.45"/>
  <text x="682" y="173" fill="#A7F3D0" font-family="Inter, Segoe UI, Arial, sans-serif" font-size="13" font-weight="800">running</text>
  <rect x="286" y="238" width="522" height="92" rx="16" fill="#0F172A" stroke="#263244"/>
  <circle cx="326" cy="284" r="14" fill="#38BDF8"/>
  <text x="358" y="276" fill="#F8FAFC" font-family="Inter, Segoe UI, Arial, sans-serif" font-size="18" font-weight="800">api-callback</text>
  <text x="358" y="303" fill="#94A3B8" font-family="Inter, Segoe UI, Arial, sans-serif" font-size="14">127.0.0.1:8080 to server:18081</text>
  <rect x="656" y="266" width="96" height="36" rx="10" fill="#0B2A3A" stroke="#38BDF8" stroke-opacity="0.45"/>
  <text x="681" y="289" fill="#BAE6FD" font-family="Inter, Segoe UI, Arial, sans-serif" font-size="13" font-weight="800">starting</text>
  <rect x="286" y="354" width="522" height="100" rx="16" fill="#0F172A" stroke="#263244"/>
  <circle cx="326" cy="404" r="14" fill="#FACC15"/>
  <text x="358" y="396" fill="#F8FAFC" font-family="Inter, Segoe UI, Arial, sans-serif" font-size="18" font-weight="800">ssh-lab</text>
  <text x="358" y="423" fill="#94A3B8" font-family="Inter, Segoe UI, Arial, sans-serif" font-size="14">127.0.0.1:22 to server:18022</text>
  <rect x="656" y="384" width="96" height="36" rx="10" fill="#3B2F08" stroke="#FACC15" stroke-opacity="0.5"/>
  <text x="682" y="407" fill="#FEF3C7" font-family="Inter, Segoe UI, Arial, sans-serif" font-size="13" font-weight="800">paused</text>
</svg>
